<?xml version="1.0" standalone="no"?>
<!DOCTYPE svg PUBLIC "-//W3C//DTD SVG 20010904//EN"
 "http://www.w3.org/TR/2001/REC-SVG-20010904/DTD/svg10.dtd">
<svg version="1.0" xmlns="http://www.w3.org/2000/svg"
 width="500.000000pt" height="500.000000pt" viewBox="0 0 500.000000 500.000000"
 preserveAspectRatio="xMidYMid meet">

<g transform="translate(0.000000,500.000000) scale(0.100000,-0.100000)"
fill="#000000" stroke="none">
<path d="M2970 3491 c0 -5 7 -14 15 -21 8 -7 12 -16 9 -21 -3 -5 22 -9 55 -9
34 0 61 4 61 9 0 5 15 18 33 30 l32 21 -102 0 c-57 0 -103 -4 -103 -9z"/>
<path d="M4597 3445 c-12 -30 -8 -170 5 -183 7 -7 40 -12 79 -12 52 0 68 4 73
16 9 23 7 172 -2 178 -4 2 -39 7 -78 11 -62 6 -72 5 -77 -10z"/>
<path d="M2150 3349 c-116 -7 -149 -12 -170 -27 -14 -10 -63 -45 -110 -77 -79
-54 -174 -131 -345 -279 -76 -66 -86 -77 -80 -86 2 -4 51 -10 107 -13 119 -8
540 -48 803 -77 238 -26 235 -27 272 13 27 29 54 72 183 297 21 36 61 101 89
145 28 44 51 85 51 91 0 23 -484 31 -800 13z"/>
<path d="M3305 3348 c-137 -11 -197 -30 -243 -76 -41 -43 -175 -262 -221 -363
-60 -133 -50 -219 26 -219 78 0 370 43 409 60 23 10 61 21 85 25 24 4 69 13
99 20 30 7 67 16 82 19 37 8 49 50 37 128 -15 92 -57 242 -91 325 -36 87 -46
92 -183 81z m-76 -391 c55 -27 84 -133 45 -161 -24 -18 -30 -19 -243 -47 -164
-21 -175 -21 -187 -5 -8 12 -10 27 -3 48 10 36 24 48 56 48 15 0 23 8 28 28 3
15 14 42 25 59 17 28 25 32 72 36 117 8 184 6 207 -6z"/>
<path d="M4470 2818 c-87 -10 -629 -85 -677 -93 -23 -4 -33 -11 -33 -24 0 -18
25 -35 38 -27 4 2 185 30 402 61 217 31 399 60 404 65 14 14 -4 30 -32 29 -15
-1 -61 -6 -102 -11z"/>
<path d="M2315 2689 c-77 -21 -207 -57 -290 -78 -210 -56 -672 -213 -782 -267
-110 -54 -129 -73 -177 -166 -41 -83 -97 -238 -90 -250 7 -11 497 -10 527 1
27 11 39 36 66 142 11 41 45 133 76 203 49 112 55 131 46 157 -9 27 -8 31 17
40 62 24 387 131 512 168 147 45 274 90 250 90 -8 -1 -78 -18 -155 -40z m-665
-288 c0 -10 -16 -54 -37 -97 -20 -43 -55 -135 -77 -204 l-42 -125 -211 -3
-212 -2 30 67 c17 38 50 109 74 159 l44 91 83 38 c76 34 260 88 323 93 18 1
25 -3 25 -17z"/>
<path d="M3229 2586 c-87 -23 -139 -67 -190 -166 -21 -39 -24 -59 -24 -155 1
-123 11 -157 66 -220 89 -101 238 -100 330 2 115 127 131 330 36 454 -56 74
-136 105 -218 85z m129 -80 c74 -38 126 -159 107 -246 -6 -29 -9 -30 -60 -30
-52 0 -53 0 -69 40 -9 22 -20 40 -26 40 -5 0 -13 15 -18 33 -6 25 -15 33 -38
37 -24 4 -29 10 -29 35 0 30 0 30 59 30 54 -1 60 -3 92 -37 25 -28 35 -50 40
-87 7 -57 24 -69 24 -18 0 56 -19 102 -55 137 -30 29 -43 34 -92 38 -32 2 -70
-1 -85 -7 -24 -9 -28 -16 -28 -51 l0 -40 -50 0 c-27 0 -50 3 -50 7 0 15 53 83
77 98 63 42 145 50 201 21z m-191 -185 c6 -1 17 -17 23 -36 6 -19 16 -35 21
-35 5 0 17 -16 26 -34 13 -29 22 -35 52 -38 34 -3 36 -5 39 -40 2 -24 8 -38
17 -38 9 0 15 14 17 38 3 35 5 37 41 40 46 4 48 -10 8 -65 -53 -73 -141 -108
-215 -83 -50 16 -100 79 -120 149 -15 54 -21 132 -12 142 4 4 48 4 103 0z"/>
<path d="M3090 2256 c0 -74 49 -158 106 -182 44 -18 88 -18 104 1 14 16 11 18
-40 16 -71 -3 -129 63 -145 162 -7 46 -25 49 -25 3z"/>
<path d="M322 2418 c-68 -184 -78 -264 -37 -302 41 -39 239 -99 474 -146 175
-34 152 -49 256 161 60 121 86 182 78 187 -6 4 -105 24 -220 45 -191 35 -458
89 -509 103 -19 5 -25 -2 -42 -48z"/>
<path d="M4172 2278 c-11 -35 -27 -97 -37 -138 -10 -41 -23 -80 -29 -86 -6 -7
-76 -30 -156 -53 -183 -53 -1040 -330 -1142 -369 l-76 -29 -7 116 c-12 214
-52 336 -137 425 l-45 47 -65 -25 c-36 -13 -80 -32 -97 -41 -18 -9 -51 -20
-74 -25 l-42 -8 40 -1 c80 -2 191 -73 242 -154 58 -93 80 -223 62 -384 -6 -59
-17 -127 -25 -152 -7 -25 -11 -47 -9 -49 2 -3 46 14 97 36 51 22 212 81 358
130 146 50 373 129 505 176 324 115 438 149 649 191 98 19 182 38 187 41 5 3
9 11 9 19 0 7 7 16 16 19 24 9 54 89 61 159 6 68 -4 168 -15 150 -5 -7 -25 -5
-64 7 l-57 17 -16 -39 c-12 -32 -19 -38 -35 -33 -15 5 -22 1 -28 -16 -16 -42
-20 4 -6 60 8 30 13 55 12 56 -2 1 -15 5 -30 9 -26 6 -28 4 -46 -56z"/>
<path d="M4500 2208 c0 -65 -23 -219 -37 -241 -4 -7 7 0 25 15 18 15 63 43
100 63 91 48 166 106 170 132 3 23 -19 33 -123 58 l-53 12 -6 -30 c-3 -16 -6
-55 -6 -87 0 -37 -5 -62 -14 -69 -20 -17 -26 6 -26 101 0 57 -4 84 -15 94 -13
14 -15 8 -15 -48z"/>
<path d="M2031 2024 c-63 -19 -124 -42 -135 -52 -42 -37 -114 -214 -152 -373
-71 -299 -81 -322 -161 -348 -94 -30 -337 -23 -503 15 -52 11 -82 25 -116 54
-25 21 -60 40 -78 43 -25 4 -248 82 -317 111 -24 10 -29 -14 -13 -59 31 -94
215 -210 474 -300 243 -84 300 -95 555 -110 127 -8 275 -21 330 -31 135 -22
286 -15 350 16 56 27 54 36 -5 15 -23 -8 -50 -15 -59 -15 -9 1 7 8 34 18 62
21 112 56 120 83 4 12 4 41 0 66 -6 40 -9 44 -28 38 -35 -10 -172 -26 -299
-33 -64 -4 -120 -10 -124 -14 -13 -13 43 -73 92 -100 27 -14 69 -31 93 -38 23
-6 41 -14 38 -17 -12 -11 -145 38 -202 75 -33 21 -79 60 -102 86 -54 61 -62
104 -34 183 11 32 27 101 36 153 41 267 156 468 320 558 31 17 10 13 -114 -24z"/>
<path d="M259 1953 c6 -36 10 -40 98 -84 94 -47 384 -147 453 -156 38 -5 39
-5 45 31 4 20 5 42 2 49 -2 7 -51 25 -108 41 -57 16 -191 57 -298 92 -106 35
-194 64 -196 64 -1 0 1 -17 4 -37z"/>
<path d="M2218 1822 c-40 -26 -87 -89 -122 -162 -29 -62 -31 -71 -31 -185 0
-104 3 -125 22 -160 82 -153 229 -143 320 21 87 158 82 362 -12 461 -39 40
-45 43 -96 43 -35 0 -64 -6 -81 -18z m89 -187 c13 -9 28 -33 34 -54 33 -111
-68 -224 -130 -145 -43 55 -17 180 42 204 30 12 30 12 54 -5z"/>
<path d="M1013 1670 c-7 -42 -6 -63 1 -69 15 -11 189 -31 270 -31 70 0 68 -2
80 70 3 19 2 40 -2 47 -4 6 -69 18 -151 27 -204 23 -187 27 -198 -44z"/>
</g>
</svg>
